<?xml version="1.0" standalone="no"?>
<!DOCTYPE svg PUBLIC "-//W3C//DTD SVG 20010904//EN"
 "http://www.w3.org/TR/2001/REC-SVG-20010904/DTD/svg10.dtd">
<svg version="1.0" xmlns="http://www.w3.org/2000/svg"
 width="256.000000pt" height="256.000000pt" viewBox="0 0 256.000000 256.000000"
 preserveAspectRatio="xMidYMid meet">

<g transform="translate(0.000000,256.000000) scale(0.100000,-0.100000)"
fill="#000000" stroke="none">
<path d="M750 2087 c-109 -24 -221 -114 -268 -215 l-27 -57 -3 -487 c-3 -424
-1 -495 13 -550 41 -157 96 -244 185 -292 100 -54 116 -56 621 -56 505 0 522
2 617 57 41 25 97 85 121 131 7 13 23 60 37 105 l24 81 0 496 c0 553 1 544
-68 635 -48 63 -123 121 -187 142 -44 15 -108 18 -530 20 -346 1 -495 -2 -535
-10z m420 -112 c22 -35 34 -46 25 -22 -4 9 6 11 37 9 55 -5 484 -2 509 3 11 2
17 0 14 -6 -8 -13 9 -11 22 2 6 6 17 8 24 3 8 -4 23 -9 33 -10 25 -1 88 -72
115 -128 20 -40 21 -60 21 -381 0 -334 0 -339 -22 -362 -12 -13 -32 -23 -45
-23 -30 0 -63 -34 -63 -64 0 -33 11 -38 48 -24 25 10 34 9 57 -6 25 -16 27
-22 22 -63 -2 -24 -7 -47 -10 -50 -10 -9 -92 44 -125 81 -36 41 -50 96 -33
132 13 30 -3 32 -23 2 -44 -63 2 -188 113 -310 l24 -28 -69 -32 c-59 -27 -83
-32 -164 -35 -61 -3 -111 1 -140 9 -42 13 -45 16 -48 53 -2 26 1 41 12 47 8 4
17 21 21 37 3 16 13 35 21 42 8 6 14 22 14 35 0 20 -5 24 -31 24 -19 0 -28 4
-24 11 4 6 23 9 43 7 22 -2 37 2 40 10 2 7 -6 12 -20 13 -19 1 -18 3 7 8 17 4
29 12 28 19 -2 7 3 12 10 12 7 0 23 13 35 29 25 34 93 69 164 85 48 10 79 36
44 36 -20 0 -190 88 -251 130 -52 35 -59 60 -17 60 25 1 23 4 -41 65 l-67 65
-105 0 -104 0 21 46 c42 96 35 126 -38 153 -62 24 -150 26 -204 7 -29 -11 -36
-18 -38 -46 -2 -19 -10 -43 -18 -54 -20 -28 -18 -69 5 -98 l20 -24 -30 -18
c-74 -44 -106 -138 -75 -225 l15 -45 -34 -57 -35 -56 -78 2 c-75 3 -79 4 -114
39 -25 25 -48 37 -78 42 l-43 7 7 151 c6 148 11 165 44 166 15 0 95 38 147 71
22 14 75 42 118 63 42 20 77 38 77 39 0 1 4 17 9 35 l10 32 -38 0 c-34 0 -46
-8 -117 -78 -56 -56 -100 -89 -153 -115 -40 -20 -80 -37 -88 -37 -12 0 -14 26
-11 168 3 159 4 170 31 224 33 67 88 114 161 140 41 14 86 17 228 18 l176 0
22 -35z m75 -349 c19 -8 35 -22 35 -30 0 -13 -5 -13 -42 0 -25 9 -73 14 -113
14 -92 -2 -95 -1 -60 15 40 19 137 19 180 1z m-107 -91 c-2 -12 -7 -7 -15 16
-12 30 -11 32 3 17 9 -8 14 -23 12 -33z m-54 9 c19 -18 19 -20 6 -45 -6 -11
-21 -19 -35 -19 -20 0 -45 24 -45 44 0 10 32 36 45 36 7 0 21 -7 29 -16z m176
-5 c0 -18 -42 -109 -51 -109 -18 0 -19 22 -2 70 12 34 23 50 35 50 10 0 18 -5
18 -11z m163 -278 c9 -16 17 -38 17 -49 0 -18 -3 -19 -34 -10 -25 8 -37 19
-44 42 l-10 31 -1 -27 c-1 -32 -20 -37 -28 -8 -6 21 -23 28 -23 9 0 -6 -8 -8
-18 -5 -15 5 -23 -3 -37 -35 -23 -51 -67 -85 -120 -93 l-40 -6 40 15 c49 19
83 50 101 92 20 46 17 83 -9 135 l-23 46 106 -54 c73 -38 111 -64 123 -83z
m-315 115 c87 -45 53 -176 -45 -176 -99 0 -133 120 -49 171 37 23 58 24 94 5z
m422 -143 c0 -87 -3 -114 -12 -111 -9 3 -14 39 -16 121 -2 101 -1 116 13 111
12 -5 15 -27 15 -121z m68 1 c29 -14 32 -19 32 -65 0 -47 -1 -49 -29 -49 -21
0 -30 6 -35 23 -6 24 -8 107 -3 107 2 0 18 -7 35 -16z m120 -63 c19 -11 11
-45 -11 -49 -13 -3 -17 3 -17 27 0 32 6 37 28 22z m-761 -116 c-13 -27 -23
-35 -42 -35 l-26 0 28 50 c24 43 30 48 42 35 13 -13 13 -19 -2 -50z m298 14
c6 -28 1 -48 -10 -37 -3 2 -8 19 -11 36 -8 42 12 43 21 1z m98 0 c38 -17 50
-53 32 -94 -16 -39 -40 -50 -26 -12 9 24 -7 79 -28 91 -11 7 -16 26 -6 26 2 0
15 -5 28 -11z m203 -4 c4 -8 3 -23 -1 -32 -6 -16 -8 -15 -20 7 -8 14 -14 28
-15 33 0 14 31 7 36 -8z m-116 -14 c12 -23 14 -59 2 -45 -5 5 -13 21 -20 37
-13 31 2 38 18 8z m54 3 c9 -23 7 -36 -3 -30 -12 8 -21 46 -11 46 4 0 11 -7
14 -16z m-598 -70 c70 -15 97 -15 231 -4 84 7 156 12 160 12 5 -1 9 -21 10
-44 l2 -43 -16 33 c-18 34 -41 38 -34 6 14 -64 -8 -88 -25 -27 -6 21 -18 39
-26 41 -12 2 -14 -6 -10 -48 4 -40 2 -50 -11 -50 -15 0 -27 28 -27 68 0 13 -6
22 -15 22 -9 0 -15 -9 -15 -24 0 -51 -12 -86 -30 -86 -16 0 -17 7 -13 56 4 49
3 55 -12 52 -11 -2 -24 -24 -36 -64 -14 -44 -25 -63 -39 -67 -17 -4 -19 -1
-14 21 4 15 13 42 20 61 18 42 18 41 -5 41 -13 0 -30 -21 -55 -70 -21 -38 -41
-70 -46 -70 -23 0 -19 26 14 80 22 37 31 62 24 66 -5 4 -13 2 -17 -3 -35 -53
-76 -103 -83 -103 -15 0 -8 21 22 65 34 49 36 55 17 55 -7 0 -28 -20 -47 -45
-30 -40 -50 -56 -50 -39 0 3 14 25 30 50 31 45 24 59 -14 27 -18 -16 -17 -14
3 15 12 17 24 32 26 32 1 0 38 -7 81 -16z m-266 -9 c15 -8 30 -20 32 -26 2 -7
11 -7 31 2 15 7 30 9 34 5 12 -12 -58 -73 -99 -85 -22 -7 -46 -15 -53 -17 -9
-4 -14 12 -17 58 -3 35 -3 66 -1 71 7 12 42 8 73 -8z m910 -100 c0 -11 -12
-15 -45 -15 -69 0 -57 28 13 29 22 1 32 -4 32 -14z m-171 -9 c-28 -28 -296
-246 -303 -246 -20 0 36 47 244 207 47 36 75 54 59 39z m-614 -48 c38 -17 30
-26 -20 -20 -35 4 -46 1 -51 -12 -3 -9 -1 -22 5 -29 8 -11 2 -17 -25 -31 -34
-16 -38 -16 -55 0 -30 27 -23 42 39 73 65 34 72 35 107 19z m745 -8 c-9 -16
-21 -20 -65 -20 -30 0 -55 4 -55 8 0 20 28 32 77 32 51 0 53 -1 43 -20z m-255
0 c-3 -5 -16 -10 -28 -10 -18 0 -19 2 -7 10 20 13 43 13 35 0z m-430 -43 c-45
-30 -154 -87 -167 -87 -17 0 152 98 172 99 10 1 8 -3 -5 -12z m335 -26 c0 -14
-22 -18 -70 -12 l-45 5 40 7 c62 10 75 10 75 0z m300 -11 c-9 -17 -21 -20 -80
-20 -39 0 -70 4 -70 8 0 22 29 32 92 32 66 0 68 -1 58 -20z m-385 -60 c-19
-30 -67 -41 -185 -39 -98 1 -120 4 -125 17 -3 8 0 19 7 24 19 12 311 10 303
-2z m325 -15 c-20 -21 -32 -25 -84 -25 -69 0 -90 9 -80 33 5 14 21 17 97 17
l90 0 -23 -25z"/>
<path d="M1301 1284 c0 -11 3 -14 6 -6 3 7 2 16 -1 19 -3 4 -6 -2 -5 -13z"/>
<path d="M1024 1336 c-10 -8 -16 -18 -11 -22 4 -4 7 -2 7 4 0 7 6 12 14 12 8
0 18 5 21 10 9 15 -8 12 -31 -4z"/>
</g>
</svg>
